<?xml version="1.0" standalone="no"?>
<!DOCTYPE svg PUBLIC "-//W3C//DTD SVG 1.1//EN" "http://www.w3.org/Graphics/SVG/1.1/DTD/svg11.dtd" >
<svg xmlns="http://www.w3.org/2000/svg" xmlns:xlink="http://www.w3.org/1999/xlink" version="1.1" viewBox="-10 0 1044 1024">
   <path fill="currentColor"
d="M500 903q-81 0 -152 -30q-71 -31 -124.5 -84t-84.5 -124q-30 -72 -30 -153t30 -152q31 -71 84 -124t124 -84t153 -31q80 0 152 30q71 31 124 84t84 124q31 72 31 153t-31 153q-31 71 -84 124t-124 84q-72 30 -152 30zM500 217q-62 0 -116 23q-54 24 -94.5 64t-63.5 95
q-23 54 -23 115t23 116q23 54 63.5 94t94.5 64q54 23 116 23q61 0 115 -23q54 -24 94.5 -64t63.5 -94q24 -55 24 -116t-24 -115q-23 -55 -63.5 -95t-94.5 -64q-54 -23 -115 -23v0zM500 762q-52 0 -97 -20q-45 -19 -78.5 -52.5t-53.5 -78.5q-19 -45 -19 -97q0 -51 19 -97
q20 -45 53.5 -78.5t78.5 -52.5q45 -20 97 -20q51 0 96 20q45 19 79 52.5t53 78.5q20 46 20 97q0 52 -20 97q-19 45 -53 78.5t-79 52.5q-45 20 -96 20zM500 328q-77 0 -131 54.5t-54 129.5t54.5 129.5t130.5 54.5q77 0 130.5 -54.5t53.5 -129.5t-53.5 -129.5t-130.5 -54.5v0z
M557 510q0 24 -17 40.5t-40 16.5q-24 0 -41 -16.5t-17 -40.5t17 -40.5t41 -16.5q23 0 40 16.5t17 40.5v0zM489 510l291 -238l40.5 -68t62.5 -71q21 -3 40 13.5t5 56.5q26 -14 45 3.5t8 39.5q-11 23 -58 35.5t-112 17.5l-322 211v0zM938 150l5.5 11t0.5 23q17 2 28 7.5
l11 5.5l5 -6t5 -21q2 -23 -22 -31t-33 11zM1018 516h-1012q-3 0 -4.5 -1.5t-1.5 -4.5q0 -2 1.5 -4t4.5 -2h1014l2.5 2.5t1.5 3.5q0 3 -1.5 4.5t-4.5 1.5zM496 961v-898q0 -1 1.5 -2.5t4.5 -1.5q1 0 3.5 1.5t2.5 2.5v900q0 1 -1.5 2.5t-4.5 1.5q-2 0 -4 -1.5t-2 -4.5z" />
</svg>
